<?xml version="1.0" encoding="UTF-8" standalone="no"?>
<svg
   xmlns:dc="http://purl.org/dc/elements/1.1/"
   xmlns:cc="http://creativecommons.org/ns#"
   xmlns:rdf="http://www.w3.org/1999/02/22-rdf-syntax-ns#"
   xmlns:svg="http://www.w3.org/2000/svg"
   xmlns="http://www.w3.org/2000/svg"
   viewBox="0 0 832.66778 152.94741"
   height="152.9474"
   width="832.66779"
   xml:space="preserve"
   id="svg2"
   version="1.1"><metadata
     id="metadata8"><rdf:RDF><cc:Work
         rdf:about=""><dc:format>image/svg+xml</dc:format><dc:type
           rdf:resource="http://purl.org/dc/dcmitype/StillImage" /><dc:title></dc:title></cc:Work></rdf:RDF></metadata><defs
     id="defs6"><clipPath
       id="clipPath28"
       clipPathUnits="userSpaceOnUse"><path
         id="path26"
         d="M 0,0 H 596 V 842 H 0 Z" /></clipPath><clipPath
       id="clipPath56"
       clipPathUnits="userSpaceOnUse"><path
         id="path54"
         d="M 0,0 H 596 V 842 H 0 Z" /></clipPath><clipPath
       id="clipPath74"
       clipPathUnits="userSpaceOnUse"><path
         id="path72"
         d="M 0,0 H 596 V 842 H 0 Z" /></clipPath><clipPath
       id="clipPath110"
       clipPathUnits="userSpaceOnUse"><path
         id="path108"
         d="M 0,0 H 596 V 842 H 0 Z" /></clipPath><clipPath
       id="clipPath130"
       clipPathUnits="userSpaceOnUse"><path
         id="path128"
         d="M 0,0 H 596 V 842 H 0 Z" /></clipPath><clipPath
       id="clipPath166"
       clipPathUnits="userSpaceOnUse"><path
         id="path164"
         d="M 0,0 H 596 V 842 H 0 Z" /></clipPath><clipPath
       id="clipPath190"
       clipPathUnits="userSpaceOnUse"><path
         id="path188"
         d="M 0,0 H 596 V 842 H 0 Z" /></clipPath><clipPath
       id="clipPath220"
       clipPathUnits="userSpaceOnUse"><path
         id="path218"
         d="M 0,0 H 596 V 842 H 0 Z" /></clipPath><clipPath
       id="clipPath664"
       clipPathUnits="userSpaceOnUse"><path
         id="path662"
         d="M 0,0 H 596 V 842 H 0 Z" /></clipPath></defs><g
     transform="matrix(1.3333333,0,0,1.3333333,-1112.9364,0.03841892)"
     id="g10"><g
       transform="translate(0,131.16911)"
       id="g1975"><g
         id="g1843"
         transform="matrix(1.8928298,0,0,1.8928298,529.6074,-329.08341)"><path
           d="m 170.484,120.828 h 4.695 v 4.699 h -4.695 z"
           style="fill:#378748;fill-opacity:1;fill-rule:nonzero;stroke:none"
           id="path96" /><path
           d="m 179.543,120.828 h 26.984 v 1.734 h -26.984 z"
           style="fill:#378748;fill-opacity:1;fill-rule:nonzero;stroke:none"
           id="path98" /><path
           d="m 179.543,123.793 h 12.965 v 1.734 h -12.965 z"
           style="fill:#378748;fill-opacity:1;fill-rule:nonzero;stroke:none"
           id="path100" /><g
           style="fill:#378748;fill-opacity:1"
           id="g102"><g
             style="fill:#378748;fill-opacity:1"
             id="g104"><g
               style="fill:#378748;fill-opacity:1"
               id="g106"
               clip-path="url(#clipPath110)"><g
                 style="fill:#378748;fill-opacity:1"
                 id="g112"><path
                   d="m 209.527,148.984 -19.281,11.133 c -1.058,0.61 -2.422,0.61 -3.48,0 l -19.282,-11.133 c -1.074,-0.621 -1.738,-1.773 -1.738,-3.011 v -5.067 h 45.52 v 5.067 c 0,1.238 -0.668,2.39 -1.739,3.011 M 175.18,137.195 h -4.696 v -4.699 h 4.696 z m 17.324,0 h -12.961 v -1.738 h 12.961 z m -12.961,-4.699 h 26.984 v 1.738 h -26.984 z m -12.059,-11.805 19.282,-11.136 c 0.531,-0.305 1.129,-0.465 1.738,-0.465 0.609,0 1.211,0.16 1.742,0.465 l 19.281,11.136 c 1.071,0.618 1.739,1.77 1.739,3.012 v 5.082 h -45.52 v -5.082 c 0,-1.242 0.664,-2.394 1.738,-3.012 m 43.93,-3.269 -19.285,-11.133 c -2.199,-1.269 -5.047,-1.269 -7.246,0 l -19.285,11.133 c -2.235,1.293 -3.621,3.699 -3.621,6.281 v 22.27 c 0,2.582 1.386,4.988 3.621,6.277 l 19.285,11.137 c 1.101,0.633 2.351,0.968 3.621,0.968 1.273,0 2.527,-0.335 3.625,-0.968 l 19.285,-11.137 c 2.234,-1.289 3.621,-3.695 3.621,-6.277 v -22.27 c 0,-2.582 -1.387,-4.988 -3.621,-6.281"
                   style="fill:#378748;fill-opacity:1;fill-rule:nonzero;stroke:none"
                   id="path114" /></g></g></g></g><path
           d="m 170.484,144.164 h 4.695 v 4.699 h -4.695 z"
           style="fill:#378748;fill-opacity:1;fill-rule:nonzero;stroke:none"
           id="path116" /><path
           d="m 179.543,144.164 h 26.984 v 1.738 h -26.984 z"
           style="fill:#378748;fill-opacity:1;fill-rule:nonzero;stroke:none"
           id="path118" /><path
           d="m 179.543,147.129 h 12.965 v 1.734 h -12.965 z"
           style="fill:#378748;fill-opacity:1;fill-rule:nonzero;stroke:none"
           id="path120" /></g></g><text
       y="88.507324"
       x="954.56354"
       style="font-variant:normal;font-weight:bold;font-size:83.13909912px;font-family:'DejaVu Sans';-inkscape-font-specification:DejaVuSans-Bold;writing-mode:lr-tb;fill:#378748;fill-opacity:1;fill-rule:nonzero;stroke:none;stroke-width:6.39531422"
       id="text350"><tspan
         style="stroke-width:6.39531422"
         x="954.56354 1013.4257 1072.288 1113.2758 1168.8127 1217.4489 1256.6071 1284.46 1338.0012 1365.8523 1405.0105"
         y="88.507324"
         id="tspan348">pg_activity</tspan></text>
</g></svg>